<svg width="134pt" height="388" viewBox="0 0 134 291" xmlns="http://www.w3.org/2000/svg"><g class="graph"><path stroke="transparent" d="M0 291V0h134v291H0z"/><g class="node" transform="translate(4 287)"><ellipse fill="none" stroke="#ff0" cx="63" cy="-265" rx="27" ry="18"/><text text-anchor="middle" x="63" y="-261.3" font-family="monospace" font-size="14" fill="#ff0">g</text></g><g class="node" transform="translate(4 287)"><ellipse fill="none" stroke="#ff0" cx="63" cy="-192" rx="27" ry="18"/><text text-anchor="middle" x="63" y="-188.3" font-family="monospace" font-size="14" fill="#ff0">p</text></g><g class="edge" stroke="#ff0"><path fill="none" d="M67 40.19v26.74"/><path fill="#ff0" d="m70.5 66.97-3.5 10-3.5-10h7z"/></g><g class="node" transform="translate(4 287)"><ellipse fill="none" stroke="#ff0" cx="63" cy="-105" rx="27" ry="18"/><text text-anchor="middle" x="63" y="-101.3" font-family="monospace" font-size="14" fill="#ff0">n</text></g><g class="edge"><path fill="none" stroke="#ff0" d="M67 113.2v40.56"/><path fill="#ff0" stroke="#ff0" d="m70.5 153.82-3.5 10-3.5-10h7z"/><text text-anchor="middle" x="80" y="-144.8" font-family="monospace" font-size="14" fill="#ff0" transform="translate(4 287)">n⊕g</text></g><g class="node" transform="translate(4 287)"><ellipse fill="none" stroke="#ff0" cx="27" cy="-18" rx="27" ry="18"/><text text-anchor="middle" x="27" y="-14.3" font-family="monospace" font-size="14" fill="#ff0">l</text></g><g class="edge"><path fill="none" stroke="#ff0" d="M56.91 199.01c-3.42 5.84-7.09 12.58-9.91 18.99-3.27 7.42-6.2 15.73-8.63 23.41"/><path fill="#ff0" stroke="#ff0" d="m41.72 242.45-6.24 8.56-.47-10.59 6.71 2.03z"/><text text-anchor="middle" x="60" y="-57.8" font-family="monospace" font-size="14" fill="#ff0" transform="translate(4 287)">l⊕p</text></g><g class="node" transform="translate(4 287)"><ellipse fill="none" stroke="#ff0" cx="99" cy="-18" rx="27" ry="18"/><text text-anchor="middle" x="99" y="-14.3" font-family="monospace" font-size="14" fill="#ff0">r</text></g><g class="edge"><path fill="none" stroke="#ff0" d="M74.11 199.79c5.11 12.07 12.1 28.57 17.92 42.32"/><path fill="#ff0" stroke="#ff0" d="m95.35 240.96.67 10.57-7.12-7.84 6.45-2.73z"/><text text-anchor="middle" x="100" y="-57.8" font-family="monospace" font-size="14" fill="#ff0" transform="translate(4 287)">r⊕p</text></g></g></svg>