<svg height="388" viewBox="0 0 134 291" width="134pt" xmlns="http://www.w3.org/2000/svg"><path d="m0 291v-291h134v291z" stroke="#000"/><g transform="translate(4 287)"><ellipse cx="63" cy="-265" fill="none" rx="27" ry="18" stroke="#ff0"/><text fill="#ff0" font-family="monospace" font-size="14" text-anchor="middle" x="63" y="-261.3">g</text></g><g transform="translate(4 287)"><ellipse cx="63" cy="-192" fill="none" rx="27" ry="18" stroke="#ff0"/><text fill="#ff0" font-family="monospace" font-size="14" text-anchor="middle" x="63" y="-188.3">p</text></g><g stroke="#ff0"><path d="m67 40.19v26.74" fill="none"/><path d="m70.5 66.97-3.5 10-3.5-10z" fill="#ff0"/></g><g transform="translate(4 287)"><ellipse cx="63" cy="-105" fill="none" rx="27" ry="18" stroke="#ff0"/><text fill="#ff0" font-family="monospace" font-size="14" text-anchor="middle" x="63" y="-101.3">n</text></g><path d="m67 113.2v40.56" fill="none" stroke="#ff0"/><path d="m70.5 153.82-3.5 10-3.5-10z" fill="#ff0" stroke="#ff0"/><text fill="#ff0" font-family="monospace" font-size="14" text-anchor="middle" transform="translate(4 287)" x="80" y="-144.8">n⊕g</text><g transform="translate(4 287)"><ellipse cx="27" cy="-18" fill="none" rx="27" ry="18" stroke="#ff0"/><text fill="#ff0" font-family="monospace" font-size="14" text-anchor="middle" x="27" y="-14.3">l</text></g><path d="m56.91 199.01c-3.42 5.84-7.09 12.58-9.91 18.99-3.27 7.42-6.2 15.73-8.63 23.41" fill="none" stroke="#ff0"/><path d="m41.72 242.45-6.24 8.56-.47-10.59z" fill="#ff0" stroke="#ff0"/><text fill="#ff0" font-family="monospace" font-size="14" text-anchor="middle" transform="translate(4 287)" x="60" y="-57.8">l⊕p</text><g transform="translate(4 287)"><ellipse cx="99" cy="-18" fill="none" rx="27" ry="18" stroke="#ff0"/><text fill="#ff0" font-family="monospace" font-size="14" text-anchor="middle" x="99" y="-14.3">r</text></g><path d="m74.11 199.79c5.11 12.07 12.1 28.57 17.92 42.32" fill="none" stroke="#ff0"/><g fill="#ff0"><path d="m95.35 240.96.67 10.57-7.12-7.84z" stroke="#ff0"/><text font-family="monospace" font-size="14" text-anchor="middle" transform="translate(4 287)" x="100" y="-57.8">r⊕p</text></g></svg>